<svg xmlns="http://www.w3.org/2000/svg" fill="none" viewBox="-1 -1 24 24" height="24" width="24"><g id="camera-video--film-television-tv-camera-movies-video-recorder"><path id="Vector" stroke="#c7c7c7" stroke-linecap="round" stroke-linejoin="round" d="M5.5 10.214285714285714c2.6036214285714285 0 4.714285714285714 -2.110664285714286 4.714285714285714 -4.714285714285714s-2.110664285714286 -4.714285714285714 -4.714285714285714 -4.714285714285714 -4.714285714285714 2.110664285714286 -4.714285714285714 4.714285714285714 2.110664285714286 4.714285714285714 4.714285714285714 4.714285714285714Z" stroke-width="2"></path><path id="Vector_2" stroke="#c7c7c7" stroke-linecap="round" stroke-linejoin="round" d="M16.5 10.214285714285714c1.7358 0 3.142857142857143 -1.4071042857142857 3.142857142857143 -3.142857142857143s-1.4070571428571428 -3.142857142857143 -3.142857142857143 -3.142857142857143c-1.735752857142857 0 -3.142857142857143 1.4071042857142857 -3.142857142857143 3.142857142857143s1.4071042857142857 3.142857142857143 3.142857142857143 3.142857142857143Z" stroke-width="2"></path><path id="Vector_3" stroke="#c7c7c7" stroke-linecap="round" stroke-linejoin="round" d="M15.714285714285714 14.142857142857142H7.071428571428571c-0.8678685714285714 0 -1.5714285714285714 0.70356 -1.5714285714285714 1.5714285714285714v3.9285714285714284c0 0.8679 0.70356 1.5714285714285714 1.5714285714285714 1.5714285714285714H15.714285714285714c0.8679 0 1.5714285714285714 -0.7035285714285714 1.5714285714285714 -1.5714285714285714V15.714285714285714c0 -0.8678685714285714 -0.7035285714285714 -1.5714285714285714 -1.5714285714285714 -1.5714285714285714Z" stroke-width="2"></path><path id="Vector_4" stroke="#c7c7c7" stroke-linecap="round" stroke-linejoin="round" d="M21.214285714285715 15.714285714285714v3.9285714285714284" stroke-width="2"></path></g></svg>