<svg xmlns="http://www.w3.org/2000/svg" fill="none" viewBox="-1 -1 24 24" height="24" width="24"><g id="camera-video--film-television-tv-camera-movies-video-recorder"><path id="Rectangle 1099" stroke="#c7c7c7" stroke-linejoin="round" d="M1.4996666666666665 18.404833333333332c0.088 1.1650833333333332 1.0005416666666664 2.028583333333333 2.167 2.0955 1.134375 0.06462499999999999 2.7921666666666662 0.12466666666666668 5.041666666666666 0.12466666666666668 2.2490416666666664 0 3.9072916666666666 -0.06004166666666667 5.041666666666666 -0.12512500000000001 1.1664583333333332 -0.06645833333333333 2.0789999999999997 -0.9299583333333332 2.167 -2.0945833333333335C15.98483333333333 17.503749999999997 16.041666666666664 16.269916666666663 16.041666666666664 14.666666666666666c0 -1.6037083333333333 -0.05683333333333333 -2.837083333333333 -0.12466666666666668 -3.738166666666667 -0.088 -1.1650833333333332 -1.0005416666666664 -2.028583333333333 -2.167 -2.0955 -1.134375 -0.06462499999999999 -2.7926249999999997 -0.12466666666666668 -5.041666666666666 -0.12466666666666668 -2.2495000000000003 0 -3.9072916666666666 0.06004166666666667 -5.041666666666666 0.12512500000000001 -1.1664583333333332 0.06645833333333333 -2.0789999999999997 0.9299583333333332 -2.167 2.0945833333333335C1.4318333333333333 11.829583333333332 1.375 13.063416666666665 1.375 14.666666666666666c0 1.6037083333333333 0.05683333333333333 2.837083333333333 0.12466666666666668 3.738166666666667Z" stroke-width="2"></path><path id="Subtract" stroke="#c7c7c7" stroke-linejoin="round" d="M15.993541666666667 17.09125c0.029333333333333333 -0.6888749999999999 0.048124999999999994 -1.4941666666666664 0.048124999999999994 -2.424583333333333 0 -0.9304166666666666 -0.01879166666666667 -1.7361666666666664 -0.048124999999999994 -2.4250416666666665 0.7489166666666666 -0.39920833333333333 1.8058333333333332 -0.919875 2.856333333333333 -1.2947916666666668 0.8254583333333333 -0.29470833333333335 1.6096666666666666 0.20808333333333334 1.683 1.0816666666666666 0.051791666666666666 0.6201249999999999 0.092125 1.4758333333333333 0.092125 2.6377083333333333 0 1.1623333333333332 -0.04033333333333333 2.0175833333333335 -0.092125 2.6377083333333333 -0.07333333333333333 0.8735833333333333 -0.8570833333333333 1.376375 -1.683 1.0816666666666666 -1.0504999999999998 -0.3744583333333333 -2.1074166666666665 -0.895125 -2.856333333333333 -1.2947916666666668Z" stroke-width="2"></path><path id="Ellipse 40" stroke="#c7c7c7" stroke-linejoin="round" d="M3.208333333333333 3.895833333333333a2.520833333333333 2.520833333333333 0 1 0 5.041666666666666 0 2.520833333333333 2.520833333333333 0 1 0 -5.041666666666666 0" stroke-width="2"></path><path id="Ellipse 41" stroke="#c7c7c7" stroke-linejoin="round" d="M10.541666666666666 4.583333333333333a1.8333333333333333 1.8333333333333333 0 1 0 3.6666666666666665 0 1.8333333333333333 1.8333333333333333 0 1 0 -3.6666666666666665 0" stroke-width="2"></path><path id="Rectangle 60" stroke="#c7c7c7" stroke-linejoin="round" d="M10.552208333333333 12.215041666666666c0.015125 -0.3955416666666666 0.2713333333333333 -0.6966666666666667 0.6655 -0.7305833333333334A8.254583333333334 8.254583333333334 0 0 1 11.916666666666666 11.458333333333332c0.28875 0 0.5179166666666666 0.010541666666666666 0.6989583333333332 0.026125 0.39416666666666667 0.033916666666666664 0.6508333333333333 0.33549999999999996 0.6655 0.7305833333333334 0.006416666666666667 0.163625 0.010541666666666666 0.3666666666666667 0.010541666666666666 0.6182916666666667 0 0.25116666666666665 -0.004583333333333333 0.45466666666666666 -0.010541666666666666 0.6182916666666667 -0.015125 0.3955416666666666 -0.2713333333333333 0.6966666666666667 -0.6655 0.7305833333333334A8.254583333333334 8.254583333333334 0 0 1 11.916666666666666 14.208333333333332c-0.28875 0 -0.5179166666666666 -0.010541666666666666 -0.6989583333333332 -0.026125 -0.39416666666666667 -0.033916666666666664 -0.6508333333333333 -0.33549999999999996 -0.6655 -0.7305833333333334 -0.006416666666666667 -0.163625 -0.010541666666666666 -0.3666666666666667 -0.010541666666666666 -0.6182916666666667 0 -0.25116666666666665 0.004583333333333333 -0.45466666666666666 0.010541666666666666 -0.6182916666666667Z" stroke-width="2"></path></g></svg>