<svg xmlns="http://www.w3.org/2000/svg" fill="none" viewBox="-1 -1 24 24" height="24" width="24"><g id="dollar-coin--accounting-billing-payment-cash-coin-currency-money-finance"><path id="Vector" stroke="#ffffff" stroke-linecap="round" stroke-linejoin="round" d="M11 21.214285714285715c5.641271428571429 0 10.214285714285714 -4.573014285714286 10.214285714285714 -10.214285714285714C21.214285714285715 5.358807142857143 16.64127142857143 0.7857142857142857 11 0.7857142857142857 5.358807142857143 0.7857142857142857 0.7857142857142857 5.358807142857143 0.7857142857142857 11c0 5.641271428571429 4.573092857142857 10.214285714285714 10.214285714285714 10.214285714285714Z" stroke-width="2"></path><path id="Vector 3" stroke="#ffffff" stroke-linecap="round" stroke-linejoin="round" d="M13.674335714285714 8.206597142857143c-0.09197571428571429 -0.2602285714285714 -0.23390714285714287 -0.49688571428571426 -0.41427571428571425 -0.6984057142857143 -0.38366428571428574 -0.42865428571428577 -0.9411914285714286 -0.6984057142857143 -1.561732857142857 -0.6984057142857143H10.07655c-1.0329314285714286 0 -1.8702828571428571 0.8373514285714285 -1.8702828571428571 1.8702671428571427 0 0.8789157142857142 0.6119928571428571 1.6392514285714286 1.4706057142857143 1.8270842857142857l2.4692014285714285 0.5401314285714286c0.9618871428571429 0.2104142857142857 1.6474857142857142 1.06282 1.6474857142857142 2.0474614285714283 0 1.1571685714285715 -0.9380642857142857 2.096002857142857 -2.095232857142857 2.096002857142857H10.3015c-0.9122771428571428 0 -1.6883742857142856 -0.5830471428571429 -1.9760085714285713 -1.3968271428571428" stroke-width="2"></path><path id="Vector 2489" stroke="#ffffff" stroke-linecap="round" stroke-linejoin="round" d="M11 6.809518571428572V4.714285714285714" stroke-width="2"></path><path id="Vector 2490" stroke="#ffffff" stroke-linecap="round" stroke-linejoin="round" d="M11 17.2854V15.190214285714283" stroke-width="2"></path></g></svg>