<svg xmlns="http://www.w3.org/2000/svg" fill="none" viewBox="-1 -1 24 24" height="24" width="24"><g id="ear-hearing--health-medical-hearing-ear"><path id="Vector 1115" stroke="#c7c7c7" stroke-linecap="round" stroke-linejoin="round" d="M0.8489202857142857 5.011977142857143C1.3419874285714286 3.603222857142857 3.2820542857142856 0.7857142857142857 7.09775 0.7857142857142857c4.769647142857143 0 7.507059999999999 4.053798571428571 6.671468571428571 7.848782857142857 -0.7245071428571429 3.2904457142857138 -2.7772642857142857 4.437572857142857 -3.6828942857142852 5.222454285714285 -1.3229542857142855 1.1465614285714285 -1.322577142857143 2.0820485714285715 -1.8024285714285715 3.5953342857142854 -0.27753 0.8754428571428572 -1.2419314285714287 2.123628571428571 -2.5853142857142855 2.2774714285714284 -0.9735785714285715 0.11141428571428572 -2.146194285714286 -0.3518428571428571 -3.400665714285714 -1.9484142857142857" stroke-width="2"></path><path id="Ellipse 343" stroke="#c7c7c7" stroke-linecap="round" stroke-linejoin="round" d="M21.214285714285715 15.377434285714287c0 3.223565714285714 -2.6132857142857144 5.836694285714286 -5.836741428571429 5.836694285714286" stroke-width="2"></path><path id="Ellipse 345" stroke="#c7c7c7" stroke-linecap="round" stroke-linejoin="round" d="M18.516457142857142 15.267339999999999c0 1.7334742857142857 -1.4053285714285715 3.1388028571428572 -3.138912857142857 3.1388028571428572" stroke-width="2"></path><path id="Ellipse 344" stroke="#c7c7c7" stroke-linecap="round" stroke-linejoin="round" d="M15.906314285714284 14.394144285714285c0 0.8058914285714285 -0.6532899999999999 1.459212857142857 -1.4591814285714286 1.459212857142857" stroke-width="2"></path><path id="Vector 1116" stroke="#c7c7c7" stroke-linecap="round" stroke-linejoin="round" d="M3.6868542857142854 7.064592857142857c0.28567 -0.70543 1.3046785714285716 -2.0827085714285714 3.095431428571428 -1.9482885714285714 1.7907685714285715 0.13442 3.328364285714286 1.9482885714285714 2.6944185714285713 3.631304285714286 -0.63393 1.6829999999999998 -1.4717685714285713 1.1619928571428573 -2.2338799999999996 2.2942542857142856 -0.7621114285714286 1.1322614285714285 -0.47744714285714285 3.4040442857142854 -2.1735214285714286 3.7432685714285716 -1.056565714285714 0.21131 -1.6114685714285713 -0.39501 -1.6114685714285713 -0.39501" stroke-width="2"></path></g></svg>