<svg xmlns="http://www.w3.org/2000/svg" fill="none" viewBox="-1 -1 24 24" height="24" width="24"><g id="edit-image-photo"><path id="vector" stroke="#ffffff" stroke-linecap="round" stroke-linejoin="round" d="M21.21412857142857 13.357190000000001 13.812715714285716 20.75857142857143l-3.347142857142857 0.4557142857142857 0.4714285714285714 -3.347142857142857 7.385698571428571 -7.401381428571429 2.8914285714285715 2.8914285714285715Z" stroke-width="2"></path><path id="vector_2" stroke="#ffffff" stroke-linecap="round" stroke-linejoin="round" d="M6.727678571428571 21.214285714285715H2.8285714285714287c-0.5417971428571428 0 -1.0614057142857143 -0.2152857142857143 -1.4445184285714285 -0.5984C1.0009434285714285 20.23277142857143 0.7857142857142857 19.71325714285714 0.7857142857142857 19.17142857142857V2.8285714285714287c0 -0.5417971428571428 0.21522914285714287 -1.0614057142857143 0.5983387142857143 -1.4445184285714285C1.7671657142857142 1.0009434285714285 2.2867742857142854 0.7857142857142857 2.8285714285714287 0.7857142857142857h16.34285714285714c0.5418285714285714 0 1.0613428571428571 0.21522914285714287 1.4444571428571429 0.5983387142857143 0.3831142857142857 0.38311271428571425 0.5984 0.9027212857142858 0.5984 1.4445184285714285v4.635714285714286" stroke-width="2"></path><path id="vector_3" stroke="#ffffff" stroke-linecap="round" stroke-linejoin="round" d="M14.164338571428571 7.534874285714286c1.0848514285714286 0 1.964332857142857 -0.8794342857142857 1.964332857142857 -1.9642857142857142 0 -1.0848357142857143 -0.8794814285714285 -1.9642857142857142 -1.964332857142857 -1.9642857142857142 -1.0848357142857143 0 -1.9642857142857142 0.87945 -1.9642857142857142 1.9642857142857142 0 1.0848514285714286 0.87945 1.9642857142857142 1.9642857142857142 1.9642857142857142Z" stroke-width="2"></path><path id="intersect" stroke="#ffffff" stroke-linecap="round" stroke-linejoin="round" d="M0.7857142857142857 11.256944285714285C1.7195042857142857 11.08814142857143 2.6813442857142857 11 3.6637857142857144 11 6.3066771428571435 11 8.800597142857143 11.637842857142857 11 12.767982857142858" stroke-width="2"></path></g></svg>