<svg xmlns="http://www.w3.org/2000/svg" fill="none" viewBox="-1 -1 24 24" height="24" width="24"><g id="happy-face--smiley-chat-message-smile-emoji-face-satisfied"><path id="Vector" stroke="#ffffff" stroke-linecap="round" stroke-linejoin="round" d="M11 21.214285714285715c5.641271428571429 0 10.214285714285714 -4.573014285714286 10.214285714285714 -10.214285714285714C21.214285714285715 5.358807142857143 16.64127142857143 0.7857142857142857 11 0.7857142857142857 5.358807142857143 0.7857142857142857 0.7857142857142857 5.358807142857143 0.7857142857142857 11c0 5.641271428571429 4.573092857142857 10.214285714285714 10.214285714285714 10.214285714285714Z" stroke-width="2"></path><path id="Vector_2" stroke="#ffffff" stroke-linecap="round" stroke-linejoin="round" d="M5.814207142857143 12.571428571428571c0.7857142857142857 2.8285714285714287 3.9285714285714284 4.557142857142857 6.757142857142857 3.7714285714285714 1.7285714285714286 -0.6285714285714286 3.142857142857143 -2.0428571428571427 3.6143642857142857 -3.7714285714285714" stroke-width="2"></path><g id="Group 623"><path id="Vector_3" stroke="#ffffff" stroke-linecap="round" stroke-linejoin="round" d="M7.464285714285714 8.642857142857142c-0.21696714285714286 0 -0.39285714285714285 -0.17589 -0.39285714285714285 -0.39285714285714285S7.247318571428571 7.857142857142857 7.464285714285714 7.857142857142857" stroke-width="2"></path><path id="Vector_4" stroke="#ffffff" stroke-linecap="round" stroke-linejoin="round" d="M7.464285714285714 8.642857142857142c0.21696714285714286 0 0.39285714285714285 -0.17589 0.39285714285714285 -0.39285714285714285S7.681252857142857 7.857142857142857 7.464285714285714 7.857142857142857" stroke-width="2"></path></g><g id="Group 624"><path id="Vector_5" stroke="#ffffff" stroke-linecap="round" stroke-linejoin="round" d="M14.535714285714285 8.642857142857142c-0.21696714285714286 0 -0.39285714285714285 -0.17589 -0.39285714285714285 -0.39285714285714285S14.318747142857141 7.857142857142857 14.535714285714285 7.857142857142857" stroke-width="2"></path><path id="Vector_6" stroke="#ffffff" stroke-linecap="round" stroke-linejoin="round" d="M14.535714285714285 8.642857142857142c0.21696714285714286 0 0.39285714285714285 -0.17589 0.39285714285714285 -0.39285714285714285S14.75268142857143 7.857142857142857 14.535714285714285 7.857142857142857" stroke-width="2"></path></g></g></svg>