<svg xmlns="http://www.w3.org/2000/svg" fill="none" viewBox="-1 -1 24 24" height="24" width="24"><g id="layers-1--design-layer-layers-pile-stack-align"><path id="Intersect" stroke="#c7c7c7" stroke-linecap="round" stroke-linejoin="round" d="M1.9375714285714287 4.851c-1.012 0.6065714285714285 -1.0104285714285715 1.4802857142857142 -0.004714285714285714 2.09 0.99 0.5971428571428571 2.024 1.21 3.2025714285714284 1.7757142857142856 1.1785714285714286 0.5657142857142857 2.4545714285714286 1.0607142857142857 3.702285714285714 1.5352857142857141 1.2681428571428572 0.484 3.091 0.484 4.3544285714285715 -0.0015714285714285715 1.2367142857142857 -0.47614285714285715 2.4985714285714287 -0.9711428571428571 3.6724285714285716 -1.5337142857142856a38.59428571428571 38.59428571428571 0 0 0 3.197857142857143 -1.7615714285714286c1.012 -0.6065714285714285 1.012 -1.4818571428571428 0.004714285714285714 -2.09a37.572857142857146 37.572857142857146 0 0 0 -3.2025714285714284 -1.7757142857142856c-1.1785714285714286 -0.5657142857142857 -2.4545714285714286 -1.0607142857142857 -3.702285714285714 -1.5368571428571427C11.894142857142857 1.0701428571428573 10.071285714285715 1.0701428571428573 8.807857142857143 1.5557142857142856c-1.2367142857142857 0.47457142857142853 -2.4985714285714287 0.9711428571428571 -3.6724285714285716 1.5337142857142856 -1.1722857142857142 0.5625714285714285 -2.2078571428571427 1.1675714285714285 -3.197857142857143 1.7600000000000002Z" stroke-width="2"></path><path id="Intersect_2" stroke="#c7c7c7" stroke-linecap="round" stroke-linejoin="round" d="M20.82142857142857 12.249285714285714a43.01 43.01 0 0 1 -3.465 1.7600000000000002c-1.272857142857143 0.5641428571428571 -2.6399999999999997 1.0607142857142857 -3.9804285714285714 1.5352857142857141 -1.3687142857142858 0.48557142857142854 -3.3440000000000003 0.48557142857142854 -4.719 0.0015714285714285715 -1.3514285714285714 -0.47457142857142853 -2.7342857142857144 -0.9695714285714285 -4.011857142857143 -1.5352857142857141S2.247142857142857 12.832285714285714 1.173857142857143 12.235142857142856" stroke-width="2"></path><path id="Intersect_3" stroke="#c7c7c7" stroke-linecap="round" stroke-linejoin="round" d="M20.82142857142857 17.16c-1.0732857142857144 0.5924285714285714 -2.1937142857142855 1.1974285714285715 -3.465 1.7600000000000002 -1.272857142857143 0.5641428571428571 -2.6399999999999997 1.0607142857142857 -3.9804285714285714 1.5352857142857141 -1.3687142857142858 0.48557142857142854 -3.3440000000000003 0.48557142857142854 -4.719 0.003142857142857143 -1.3514285714285714 -0.47614285714285715 -2.7342857142857144 -0.9711428571428571 -4.011857142857143 -1.5368571428571427S2.247142857142857 17.74142857142857 1.173857142857143 17.144285714285715" stroke-width="2"></path></g></svg>