<svg xmlns="http://www.w3.org/2000/svg" fill="none" viewBox="-1 -1 24 24" height="24" width="24"><g id="music-note-trebble-clef--music-audio-note-trebble-clef-entertainment"><path id="Ellipse 483" stroke="#ffffff" stroke-linecap="round" stroke-linejoin="round" d="M7.333333333333333 19.25a1.375 1.375 0 1 0 2.75 0 1.375 1.375 0 1 0 -2.75 0" stroke-width="2"></path><path id="Vector 1649" stroke="#ffffff" stroke-linecap="round" stroke-linejoin="round" d="M8.708333333333332 20.625h0.9166666666666666a2.75 2.75 0 0 0 2.75 -2.75v-2.2916666666666665" stroke-width="2"></path><path id="Vector 1664" stroke="#ffffff" stroke-linecap="round" stroke-linejoin="round" d="M12.145833333333332 4.125c0 -0.248875 0.004583333333333333 -0.4766666666666667 0.011458333333333334 -0.68475C12.198541666666666 2.27425 13.041875 1.375 14.208333333333332 1.375c1.1545416666666666 0 2.0047499999999996 0.9134583333333334 2.0510416666666664 2.067083333333333 0.007333333333333333 0.17875 0.011458333333333334 0.3685 0.011458333333333334 0.5683333333333334 0 1.5995833333333334 -1.4978333333333331 2.7041666666666666 -3.0960416666666664 2.6546666666666665a40.65233333333333 40.65233333333333 0 0 0 -1.7155416666666665 -0.016958333333333332C8.907708333333332 6.675166666666667 6.875 8.677166666666666 6.875 11.229166666666666c0 2.4154166666666663 1.942875 4.2647916666666665 4.357374999999999 4.3285 0.5921666666666666 0.015583333333333334 1.2109166666666666 0.025666666666666667 1.8301249999999998 0.025666666666666667 0.6343333333333333 0 1.2063333333333333 -0.010541666666666666 1.7137083333333332 -0.026583333333333334C16.515583333333332 15.500375 17.875 14.229875 17.875 12.489583333333332c0 -1.7233333333333332 -1.3786666666666667 -2.981 -3.1010833333333334 -3.0570833333333334A34.449708333333334 34.449708333333334 0 0 0 13.291666666666666 9.395833333333332c-0.5880416666666666 0 -1.128875 0.023374999999999996 -1.59225 0.05545833333333333 -0.99825 0.06874999999999999 -1.8452499999999998 0.7773333333333333 -1.8452499999999998 1.7778749999999999 0 0.9922916666666667 0.858 1.683 1.8475416666666664 1.7590833333333333 0.5330416666666666 0.041249999999999995 1.111 0.07425 1.5899583333333331 0.07425 1.2604166666666665 0 1.8333333333333333 -0.11458333333333333 1.8333333333333333 -0.11458333333333333" stroke-width="2"></path></g></svg>