<svg xmlns="http://www.w3.org/2000/svg" fill="none" viewBox="-1 -1 24 24" height="24" width="24"><g id="play-list-5--player-television-movies-slider-media-tv-players-video-stack-entertainment"><path id="Vector" stroke="#ffffff" stroke-linecap="round" stroke-linejoin="round" d="M6.835714285714285 13.357221428571428c1.1716257142857143 0 2.1214285714285714 -0.9498028571428571 2.1214285714285714 -2.1214285714285714 0 -1.1716414285714285 -0.9498028571428571 -2.1214285714285714 -2.1214285714285714 -2.1214285714285714 -1.1716257142857143 0 -2.1214285714285714 0.9497871428571428 -2.1214285714285714 2.1214285714285714 0 1.1716257142857143 0.9498028571428571 2.1214285714285714 2.1214285714285714 2.1214285714285714Z" stroke-width="2"></path><path id="Vector_2" stroke="#ffffff" stroke-linecap="round" stroke-linejoin="round" d="M13.341334285714286 7.857142857142857c-0.3223785714285714 -0.9119785714285714 -0.9175099999999999 -1.7027214285714285 -1.704622857142857 -2.2649628571428573C10.84959857142857 5.029954285714286 9.90858 4.723462857142857 8.941334285714285 4.714285714285714v6.521428571428572" stroke-width="2"></path><path id="Vector_3" stroke="#ffffff" stroke-linecap="round" stroke-linejoin="round" d="M15.714285714285714 0.7857142857142857H2.357142857142857c-0.8678764285714285 0 -1.5714285714285714 0.7035521428571428 -1.5714285714285714 1.5714285714285714V15.714285714285714c0 0.8679 0.7035521428571428 1.5714285714285714 1.5714285714285714 1.5714285714285714H15.714285714285714c0.8679 0 1.5714285714285714 -0.7035285714285714 1.5714285714285714 -1.5714285714285714V2.357142857142857c0 -0.8678764285714285 -0.7035285714285714 -1.5714285714285714 -1.5714285714285714 -1.5714285714285714Z" stroke-width="2"></path><path id="Vector_4" stroke="#ffffff" stroke-linecap="round" stroke-linejoin="round" d="M21.214285714285715 5.5v14.142857142857142c0 0.41674285714285714 -0.1656285714285714 0.8165142857142856 -0.46027142857142855 1.1111571428571427s-0.6944142857142858 0.46027142857142855 -1.1111571428571427 0.46027142857142855h-14.142857142857142" stroke-width="2"></path></g></svg>