<svg xmlns="http://www.w3.org/2000/svg" fill="none" viewBox="-1 -1 24 24" height="24" width="24"><g id="radio--antenna-audio-music-radio-entertainment"><path id="Vector" stroke="#c7c7c7" stroke-linecap="round" stroke-linejoin="round" d="M19.642857142857142 6.285714285714286h-17.285714285714285c-0.8678764285714285 0 -1.5714285714285714 0.70356 -1.5714285714285714 1.5714285714285714v11.785714285714285c0 0.8679 0.7035521428571428 1.5714285714285714 1.5714285714285714 1.5714285714285714h17.285714285714285c0.8679 0 1.5714285714285714 -0.7035285714285714 1.5714285714285714 -1.5714285714285714V7.857142857142857c0 -0.8678685714285714 -0.7035285714285714 -1.5714285714285714 -1.5714285714285714 -1.5714285714285714Z" stroke-width="2"></path><path id="Vector_2" stroke="#c7c7c7" stroke-linecap="round" stroke-linejoin="round" d="M2.152857142857143 6.285714285714286 21.214285714285715 0.7857142857142857" stroke-width="2"></path><path id="Vector_3" stroke="#c7c7c7" stroke-linecap="round" stroke-linejoin="round" d="M7.071428571428571 18.07142857142857c1.3018185714285715 0 2.357142857142857 -1.0553714285714284 2.357142857142857 -2.357142857142857 0 -1.3018185714285715 -1.0553242857142857 -2.357142857142857 -2.357142857142857 -2.357142857142857S4.714285714285714 14.41246714285714 4.714285714285714 15.714285714285714c0 1.3017714285714286 1.0553242857142857 2.357142857142857 2.357142857142857 2.357142857142857Z" stroke-width="2"></path><path id="Vector_4" stroke="#c7c7c7" stroke-linecap="round" stroke-linejoin="round" d="M14.928571428571429 13.75H17.285714285714285" stroke-width="2"></path><path id="Vector_5" stroke="#c7c7c7" stroke-linecap="round" stroke-linejoin="round" d="M14.928571428571429 17.678571428571427H17.285714285714285" stroke-width="2"></path><path id="Vector_6" stroke="#c7c7c7" stroke-linecap="round" stroke-linejoin="round" d="M0.7857142857142857 10.214285714285714h20.428571428571427" stroke-width="2"></path></g></svg>