<svg xmlns="http://www.w3.org/2000/svg" fill="none" viewBox="-1 -1 24 24" height="24" width="24"><g id="floppy-disk--disk-floppy-electronics-device-disc-computer-storage"><path id="Subtract" stroke="#ffffff" stroke-linecap="round" stroke-linejoin="round" d="M16.8465 1.992375a2.5474166666666664 2.5474166666666664 0 0 0 -1.4822499999999998 -0.5371666666666666A110.704 110.704 0 0 0 11 1.375c-3.3751666666666664 0 -5.736041666666667 0.12695833333333334 -7.215541666666667 0.24704166666666666 -1.1710416666666668 0.09533333333333333 -2.067083333333333 0.9913749999999999 -2.1624166666666667 2.1624166666666667C1.5019583333333333 5.263958333333333 1.375 7.624833333333332 1.375 11c0 3.3751666666666664 0.12695833333333334 5.736041666666667 0.24704166666666666 7.215541666666667 0.09533333333333333 1.1710416666666668 0.9913749999999999 2.067083333333333 2.1624166666666667 2.1624166666666667C5.263958333333333 20.498041666666666 7.624833333333332 20.625 11 20.625c3.3751666666666664 0 5.736041666666667 -0.12695833333333334 7.215541666666667 -0.24704166666666666 1.1710416666666668 -0.09533333333333333 2.067083333333333 -0.9913749999999999 2.1624166666666667 -2.1624166666666667C20.498041666666666 16.736041666666665 20.625 14.375166666666667 20.625 11c0 -1.709125 -0.03254166666666666 -3.1579166666666665 -0.08020833333333333 -4.36425a2.5474166666666664 2.5474166666666664 0 0 0 -0.537625 -1.4827083333333333c-0.39416666666666667 -0.4995833333333333 -0.9111666666666667 -1.112375 -1.4799583333333333 -1.6807083333333332 -0.5683333333333334 -0.5683333333333334 -1.1815833333333332 -1.0853333333333333 -1.6807083333333332 -1.4799583333333333Z" stroke-width="2"></path><path id="Intersect" stroke="#ffffff" stroke-linecap="round" stroke-linejoin="round" d="M14.342625 1.4208333333333334c0.015583333333333334 0.323125 0.025666666666666667 0.7076666666666667 0.025666666666666667 1.1577499999999998a23.741666666666664 23.741666666666664 0 0 1 -0.029333333333333333 1.2315416666666665c-0.04033333333333333 0.7764166666666666 -0.6471666666666666 1.3465833333333335 -1.4240416666666667 1.3795833333333332 -0.4872083333333333 0.020166666666666666 -1.1210833333333334 0.03575 -1.915375 0.03575 -0.7938333333333333 0 -1.4277083333333334 -0.015583333333333334 -1.9149166666666666 -0.036208333333333335 -0.776875 -0.03208333333333333 -1.3837083333333333 -0.6027083333333333 -1.4240416666666667 -1.379125a23.741666666666664 23.741666666666664 0 0 1 -0.029791666666666668 -1.2315416666666665c0 -0.45008333333333334 0.010541666666666666 -0.834625 0.026125 -1.1577499999999998" stroke-width="2"></path><path id="Intersect_2" stroke="#ffffff" stroke-linecap="round" stroke-linejoin="round" d="M16.665916666666668 20.482916666666664c0.057749999999999996 -0.9226249999999999 0.10862499999999999 -2.223375 0.10862499999999999 -3.9485416666666664 0 -2.0487499999999996 -0.0715 -3.4993749999999997 -0.14208333333333334 -4.428416666666667 -0.058666666666666666 -0.7809999999999999 -0.653125 -1.3809583333333333 -1.4336666666666666 -1.4437499999999999 -0.8937499999999999 -0.0715 -2.270125 -0.14345833333333333 -4.19925 -0.14345833333333333 -1.9286666666666668 0 -3.3055 0.07195833333333333 -4.198791666666667 0.14391666666666666 -0.7809999999999999 0.06233333333333334 -1.375 0.6622916666666667 -1.4341249999999999 1.4437499999999999 -0.07012499999999999 0.9285833333333332 -0.14208333333333334 2.379208333333333 -0.14208333333333334 4.427958333333333 0 1.7251666666666665 0.050875 3.025916666666667 0.10908333333333332 3.9485416666666664" stroke-width="2"></path><path id="Vector 924" stroke="#ffffff" stroke-linecap="round" stroke-linejoin="round" d="M8.708333333333332 14.208333333333332h4.583333333333333" stroke-width="2"></path><path id="Vector 925" stroke="#ffffff" stroke-linecap="round" stroke-linejoin="round" d="M8.708333333333332 16.958333333333332h2.75" stroke-width="2"></path></g></svg>