<svg xmlns="http://www.w3.org/2000/svg" fill="none" viewBox="-1 -1 24 24" height="24" width="24"><g id="mail-send-email-message--send-email-paper-airplane-deliver"><path id="Subtract" stroke="#ffffff" stroke-linejoin="round" d="M1.8278333333333332 3.3600416666666666c-0.41570833333333335 -1.0248333333333335 0.5247916666666667 -2.0020000000000002 1.5697916666666665 -1.6399166666666665 3.5429166666666667 1.2278749999999998 10.277208333333332 3.8600833333333333 16.189708333333332 7.876a1.6880416666666664 1.6880416666666664 0 0 1 0 2.808208333333333c-5.9125 4.015458333333333 -12.646791666666665 6.648125 -16.189708333333332 7.876 -1.045 0.3620833333333333 -1.9854999999999998 -0.6155416666666667 -1.5697916666666665 -1.640375 0.8937499999999999 -2.201375 1.9149166666666666 -4.313833333333333 2.423208333333333 -5.336375a1.7907083333333333 1.7907083333333333 0 0 1 0.99825 -0.8845833333333333L9.166666666666666 11l-3.9173750000000003 -1.4185416666666666a1.7907083333333333 1.7907083333333333 0 0 1 -0.99825 -0.8845833333333333c-0.5082916666666666 -1.0225416666666665 -1.5294583333333334 -3.135 -2.423208333333333 -5.336833333333333Z" stroke-width="2"></path></g></svg>