<svg xmlns="http://www.w3.org/2000/svg" fill="none" viewBox="-1 -1 24 24" height="24" width="24"><g id="filter-1--funnel-filter-round-oil"><path id="Union" stroke="#ffffff" stroke-linecap="round" stroke-linejoin="round" d="M11 2.75c-5.253875 0 -7.819166666666666 0.22229166666666667 -8.918708333333333 0.3634583333333333C1.6637499999999998 3.1670833333333333 1.375 3.5232083333333333 1.375 3.9448749999999997l0 1.4666666666666668c0 0.43999999999999995 0.15675 0.8634999999999999 0.4610833333333333 1.181125 0.8685416666666667 0.9065833333333333 2.9310416666666663 2.91225 5.89875 4.8693333333333335 0.23604166666666665 0.15583333333333335 0.39141666666666663 0.4106666666666667 0.4170833333333333 0.6920833333333333 0.2915 3.139125 0.5587083333333334 5.283208333333333 0.7003333333333334 6.33875A0.8754166666666666 0.8754166666666666 0 0 0 9.724 19.25c0.16683333333333333 0 0.32999999999999996 -0.04674999999999999 0.4720833333333333 -0.13520833333333332l2.303583333333333 -1.4373333333333334c0.3510833333333333 -0.21862499999999999 0.6109583333333333 -0.5518333333333333 0.6966666666666667 -0.9565416666666667 0.14758333333333334 -0.6934583333333333 0.3840833333333333 -2.063875 0.6407499999999999 -4.566375 0.028874999999999998 -0.2795833333333333 0.18333333333333335 -0.5312083333333333 0.41754166666666664 -0.6856666666666666 2.9732083333333335 -1.9589166666666666 5.039833333333333 -3.9682499999999994 5.909291666666666 -4.876666666666667 0.30433333333333334 -0.31716666666666665 0.4610833333333333 -0.7411249999999999 0.4610833333333333 -1.181125v-1.4666666666666668c0 -0.42120833333333335 -0.28875 -0.7773333333333333 -0.7062916666666667 -0.8309583333333332C18.81870833333333 2.9722916666666666 16.253875 2.75 11 2.75Z" stroke-width="2"></path></g></svg>