<svg xmlns="http://www.w3.org/2000/svg" fill="none" viewBox="-1 -1 24 24" height="24" width="24"><g id="theater-mask--hobby-theater-masks-drama-event-show-entertainment-travel-places"><path id="Vector" stroke="#c7c7c7" stroke-linecap="round" stroke-linejoin="round" d="M7.588428571428571 15.849428571428572a3.08 3.08 0 0 1 -1.3954285714285715 -0.36142857142857143A9.042 9.042 0 0 1 1.309 7.344857142857143l0.04714285714285714 -4.085714285714285a13.413714285714285 13.413714285714285 0 0 1 12.722285714285714 0.154l-0.037714285714285714 3.131857142857143" stroke-width="2"></path><path id="Vector_2" stroke="#c7c7c7" stroke-linecap="round" stroke-linejoin="round" d="M12.961142857142855 20.459999999999997a3.081571428571429 3.081571428571429 0 0 1 -2.7154285714285713 -0.6914285714285714 9.042 9.042 0 0 1 -2.8647142857142858 -9.056142857142857l0.9915714285714285 -3.9631428571428566a13.413714285714285 13.413714285714285 0 0 1 12.340428571428571 3.0957142857142856l-0.99 3.950571428571428a9.054571428571428 9.054571428571428 0 0 1 -6.761857142857143 6.6659999999999995Z" stroke-width="2"></path><path id="Vector 167" stroke="#c7c7c7" stroke-linecap="round" stroke-linejoin="round" d="M15.151714285714284 12.840142857142856c0.5012857142857143 -0.22314285714285712 1.1895714285714285 -0.1147142857142857 1.554142857142857 0.06757142857142856" stroke-width="2"></path><path id="Vector 168" stroke="#c7c7c7" stroke-linecap="round" stroke-linejoin="round" d="M11.963285714285714 12.002571428571429c-0.3237142857142857 -0.4808571428571428 -0.9695714285714285 -0.6442857142857142 -1.3702857142857143 -0.5814285714285714" stroke-width="2"></path></g></svg>