<svg xmlns="http://www.w3.org/2000/svg" fill="none" viewBox="-1 -1 24 24" height="24" width="24"><g id="recycle-bin-2--remove-delete-empty-bin-trash-garbage"><path id="Vector" stroke="#ffffff" stroke-linecap="round" stroke-linejoin="round" d="M1.5714285714285714 5.5h18.857142857142858" stroke-width="2"></path><path id="Vector_2" stroke="#ffffff" stroke-linecap="round" stroke-linejoin="round" d="M3.9285714285714284 5.5h14.142857142857142v14.142857142857142c0 0.41674285714285714 -0.1656285714285714 0.8165142857142856 -0.46027142857142855 1.1111571428571427s-0.6944142857142858 0.46027142857142855 -1.1111571428571427 0.46027142857142855h-11c-0.4167742857142857 0 -0.8164671428571428 -0.1656285714285714 -1.1111728571428572 -0.46027142857142855C4.094137142857143 20.45937142857143 3.9285714285714284 20.0596 3.9285714285714284 19.642857142857142v-14.142857142857142Z" stroke-width="2"></path><path id="Vector_3" stroke="#ffffff" stroke-linecap="round" stroke-linejoin="round" d="M7.071428571428571 5.5V4.714285714285714c0 -1.04192 0.41389857142857145 -2.041175714285714 1.150647142857143 -2.7779242857142856C8.958824285714284 1.199616 9.95808 0.7857142857142857 11 0.7857142857142857c1.04192 0 2.041175714285714 0.4139017142857143 2.7779242857142856 1.150647142857143C14.514672857142857 2.67311 14.928571428571429 3.6723657142857142 14.928571428571429 4.714285714285714v0.7857142857142857" stroke-width="2"></path><path id="Vector_4" stroke="#ffffff" stroke-linecap="round" stroke-linejoin="round" d="M8.642857142857142 10.216579999999999V16.504714285714286" stroke-width="2"></path><path id="Vector_5" stroke="#ffffff" stroke-linecap="round" stroke-linejoin="round" d="M13.357142857142858 10.216579999999999V16.504714285714286" stroke-width="2"></path></g></svg>