<svg xmlns="http://www.w3.org/2000/svg" fill="none" viewBox="-1 -1 24 24" height="24" width="24"><g id="voice-mail--mic-audio-mike-music-microphone"><path id="Vector" stroke="#ffffff" stroke-linecap="round" stroke-linejoin="round" d="M14.928571428571429 10.214285714285714c0 1.04192 -0.41389857142857145 2.041175714285714 -1.150647142857143 2.7779242857142856C13.041175714285714 13.728958571428572 12.04192 14.142857142857142 11 14.142857142857142c-1.04192 0 -2.041175714285714 -0.41389857142857145 -2.7779242857142856 -1.150647142857143C7.485327142857143 12.25546142857143 7.071428571428571 11.256205714285713 7.071428571428571 10.214285714285714V4.714285714285714c0 -1.04192 0.41389857142857145 -2.041175714285714 1.150647142857143 -2.7779242857142856C8.958824285714284 1.199616 9.95808 0.7857142857142857 11 0.7857142857142857c1.04192 0 2.041175714285714 0.4139017142857143 2.7779242857142856 1.150647142857143C14.514672857142857 2.67311 14.928571428571429 3.6723657142857142 14.928571428571429 4.714285714285714v5.5Z" stroke-width="2"></path><path id="Vector_2" stroke="#ffffff" stroke-linecap="round" stroke-linejoin="round" d="M18.857142857142858 11c0.0020428571428571427 0.9292171428571427 -0.17945714285714284 1.8496814285714287 -0.5339714285714285 2.7085614285714286 -0.3546714285714286 0.8588800000000001 -0.8754428571428572 1.6392514285714286 -1.5326142857142857 2.2962814285714286 -0.6570142857142858 0.6570142857142858 -1.43737 1.1779428571428572 -2.296265714285714 1.5324571428571427 -0.8588800000000001 0.3546714285714286 -1.7793442857142856 0.5361714285714285 -2.7085614285714286 0.5341285714285714h-1.5714285714285714c-0.9292171428571427 0.0020428571428571427 -1.8496814285714287 -0.17945714285714284 -2.7085614285714286 -0.5341285714285714 -0.8588800000000001 -0.3545142857142857 -1.6392514285714286 -0.8754428571428572 -2.296312857142857 -1.5324571428571427 -0.6570614285714286 -0.65703 -1.1778485714285714 -1.4374014285714285 -1.5324885714285714 -2.2962814285714286S3.1407985714285713 11.929217142857143 3.1428728571428572 11" stroke-width="2"></path><path id="Vector_3" stroke="#ffffff" stroke-linecap="round" stroke-linejoin="round" d="M11 18.07142857142857v3.142857142857143" stroke-width="2"></path></g></svg>